<svg xmlns="http://www.w3.org/2000/svg" viewBox="0 0 78.43 84.01"><defs><style>.cls-1{fill:#2e3192;}</style></defs><title>lifeand wealth</title><g id="Layer_2" data-name="Layer 2"><g id="products"><path class="cls-1" d="M74.67,35.87c1.88-2.54,2-5.42.22-7.68s-4.62-2.79-7.53-1.54A6,6,0,0,0,62,21.58a5.7,5.7,0,0,0-4.66,1.74,8.94,8.94,0,0,0-2.23,5.55,18.11,18.11,0,0,0,0,2.6L54.49,33a10.16,10.16,0,0,0,.53,8.7A83.92,83.92,0,0,0,43.81,55.18H40.44V27H38V55.18H34.65A83.9,83.9,0,0,0,23.44,41.71,10.16,10.16,0,0,0,24,33l-.6-1.53a18.11,18.11,0,0,0,0-2.6,8.94,8.94,0,0,0-2.23-5.55,5.7,5.7,0,0,0-4.66-1.74,6,6,0,0,0-5.37,5.08c-2.91-1.25-5.74-.72-7.53,1.54s-1.66,5.14.22,7.68A6,6,0,0,0,.07,42.25,5.7,5.7,0,0,0,2.82,46.4a8,8,0,0,0,4.16,1,12.23,12.23,0,0,0,1.76-.13,18.11,18.11,0,0,0,2.54-.58l1.63.24a10.57,10.57,0,0,0,1.54.11A10.14,10.14,0,0,0,22,43.69a80.64,80.64,0,0,1,9.69,11.48h-10a2,2,0,0,0-2,2v4.2a2,2,0,0,0,2,2h2.17l1.6,7.91h0L27.56,81.8A2.77,2.77,0,0,0,30.26,84H48.2a2.77,2.77,0,0,0,2.7-2.21l3.71-18.38h2.17a2,2,0,0,0,2-2v-4.2a2,2,0,0,0-2-2h-10a80.6,80.6,0,0,1,9.69-11.48A10.14,10.14,0,0,0,64,47.07,10.59,10.59,0,0,0,65.55,47l1.63-.24a18.1,18.1,0,0,0,2.54.58,12.22,12.22,0,0,0,1.76.13,8,8,0,0,0,4.16-1,5.78,5.78,0,0,0,1.85-1.74,6.48,6.48,0,0,0,.91-2.4C78.69,40.16,77.25,37.61,74.67,35.87Zm-65,6.21,3.85.36-.07.06-.07.06-.18.14-.07.06-.17.13-.06,0-.18.13-.05,0-.19.14,0,0-.8.55h0l-.15.1,0,0-.13.08,0,0-.11.07,0,0-.1.06h0l-.09.06h0l-.17.1a16.15,16.15,0,0,1-2.32.54,6.61,6.61,0,0,1-4.33-.59,3.29,3.29,0,0,1-1.61-2.42c-.3-2,1.1-3.66,3.72-4.35a1.21,1.21,0,0,0,.52-2c-2.1-2-2.56-4.14-1.24-5.82A3.27,3.27,0,0,1,8.11,28.4a6.09,6.09,0,0,1,3.29,1.17,1.21,1.21,0,0,0,1.88-1c.07-2.71,1.34-4.44,3.38-4.62a3.29,3.29,0,0,1,2.72,1,6.61,6.61,0,0,1,1.56,4.08,15.82,15.82,0,0,1,0,2.39v.12l0,.05v0l0,.07v0l0,.08v0l0,.1,0,0,0,.12v0l-.05.15v0l-.23.62v0l-.07.19,0,.06-.07.18,0,.07-.07.17,0,.08L20,34l0,.09-.08.18,0,.09-.09.19,0,.08,0,0-1.25-3.74a1.21,1.21,0,1,0-2.29.77l1.94,5.81-.07.1-.08.12-.13.19,0,0-6.14-4.86A1.21,1.21,0,1,0,10.18,35l6.11,4.84-.07.08-.11.12-.17.18-.05.05-6-.56a1.21,1.21,0,0,0-.22,2.4Zm11-.41a7.78,7.78,0,0,1-6,3c.38-.29.78-.62,1.19-1h0l.28-.24,0,0,.26-.23.06-.05.24-.23.07-.07.23-.22.08-.08.22-.22.09-.09.21-.22.1-.11.2-.22.11-.12.2-.22.11-.12.2-.22.11-.13.21-.24.1-.12,0,0,0-.05,0,0,.19-.24h0l.44-.57.06-.08.39-.56.07-.1.36-.55.05-.09.34-.57,0,0c.23-.4.45-.8.64-1.18l0,0,.27-.56,0,0,.25-.54h0A7.78,7.78,0,0,1,20.57,41.68ZM50.85,69.88H40.05a1.21,1.21,0,1,0,0,2.41H50.36l-1.82,9a.34.34,0,0,1-.34.28H30.26a.34.34,0,0,1-.34-.28l-1.82-9h3.27a1.21,1.21,0,1,0,0-2.41H27.61l-1.31-6.47H52.15Zm5.54-12.29V61H22.07V57.59Zm1.5-15.91a7.78,7.78,0,0,1-1.55-6.45l0,.06.2.43.07.15.23.46.07.13.26.49,0,.09.27.49.06.1.32.53.07.12.35.53.07.11.39.55.06.08.44.58.19.24,0,0,0,.05,0,0,.1.12.21.24L60,41l.2.22.11.12.2.22.11.12.2.22.1.11.21.22.09.09.22.22.08.08.23.22.07.07.25.23.06.05.26.23,0,0,.28.24,0,0c.41.36.81.68,1.19,1A7.78,7.78,0,0,1,57.89,41.68ZM76,41.91a3.29,3.29,0,0,1-1.61,2.42,6.61,6.61,0,0,1-4.33.59,16.09,16.09,0,0,1-2.32-.54l-.08,0h0l-.09-.05h0l-.09-.05,0,0-.1-.06,0,0-.11-.07,0,0L67.06,44l0,0-.14-.09,0,0-.18-.12h0l-.41-.28h0l-.21-.15,0,0-.18-.13-.06,0-.17-.13-.07-.05-.17-.13-.08-.06-.17-.13-.08-.06L65,42.44l3.85-.36a1.21,1.21,0,1,0-.22-2.4l-6,.56-.05-.05L62.35,40l-.11-.12-.07-.07L68.28,35a1.21,1.21,0,0,0-1.5-1.89l-6.14,4.86,0,0-.13-.19-.08-.12-.07-.1,1.94-5.81A1.21,1.21,0,1,0,60,30.92l-1.25,3.74,0,0,0-.1-.08-.17,0-.1-.07-.16,0-.1-.07-.15,0-.1-.06-.15,0-.1-.06-.14,0-.1-.05-.14L58,33,58,32.88l0-.08-.06-.17,0-.14,0-.08,0-.11,0-.07,0-.1,0-.05,0-.1v0l0-.1v0l0-.1h0l-.07-.24a15.82,15.82,0,0,1,0-2.39A6.61,6.61,0,0,1,59.07,25a3.28,3.28,0,0,1,2.72-1c2,.18,3.31,1.9,3.38,4.62a1.21,1.21,0,0,0,1.88,1c2.4-1.6,4.62-1.55,5.95.12s.87,3.85-1.24,5.82a1.21,1.21,0,0,0,.52,2C74.91,38.25,76.3,39.87,76,41.91Z"/><path class="cls-1" d="M45.68,21.38"/><path class="cls-1" d="M39.78,0A13.55,13.55,0,1,0,53.33,13.55,13.57,13.57,0,0,0,39.78,0Zm0,25.32A11.77,11.77,0,1,1,51.55,13.55,11.78,11.78,0,0,1,39.78,25.32Z"/><path class="cls-1" d="M40.67,12.75V7.69a2.57,2.57,0,0,1,1.25,1,.89.89,0,1,0,1.49-1,4.34,4.34,0,0,0-2.74-1.87V4.42a.89.89,0,1,0-1.78,0V5.84a4.35,4.35,0,0,0,0,8.52v5.06a2.57,2.57,0,0,1-1.25-1,.89.89,0,1,0-1.49,1,4.34,4.34,0,0,0,2.74,1.87v1.42a.89.89,0,1,0,1.78,0V21.27a4.35,4.35,0,0,0,0-8.52Zm-3.46-2.66a2.57,2.57,0,0,1,1.68-2.4V12.5A2.57,2.57,0,0,1,37.21,10.09Zm3.46,9.32V14.61a2.56,2.56,0,0,1,0,4.81Z"/></g></g></svg>