<svg xmlns="http://www.w3.org/2000/svg" viewBox="0 0 60 70.54"><defs><style>.cls-1{fill:#2e3192;}</style></defs><title>personal</title><g id="Layer_2" data-name="Layer 2"><g id="products"><path class="cls-1" d="M29.74,38h.47a13.48,13.48,0,0,0,10.3-4.46c5.62-6.34,4.69-17.21,4.59-18.24C44.73,7.52,41.05,3.8,38,2.06A16.24,16.24,0,0,0,30.15,0H29.9A16.27,16.27,0,0,0,22,2C19,3.74,15.24,7.46,14.87,15.31c-.1,1-1,11.9,4.59,18.24A13.42,13.42,0,0,0,29.74,38Zm-11-22.33s0-.09,0-.12C19.27,5.08,26.71,4,29.89,4h.18C34,4,40.71,5.65,41.17,15.56a.28.28,0,0,0,0,.12c0,.1,1,10-3.61,15.26a9.57,9.57,0,0,1-7.52,3.13H29.9a9.54,9.54,0,0,1-7.51-3.13C17.77,25.74,18.76,15.76,18.77,15.67Z"/><path class="cls-1" d="M60,56v0c0-.12,0-.23,0-.37-.09-2.89-.28-9.66-6.62-11.82l-.15,0a42.15,42.15,0,0,1-12.12-5.52,2,2,0,0,0-2.26,3.23,45.49,45.49,0,0,0,13.34,6.09c3.4,1.21,3.78,4.85,3.89,8.18a2.93,2.93,0,0,0,0,.37,26.51,26.51,0,0,1-.31,4.51c-2.37,1.34-11.64,6-25.75,6s-23.39-4.66-25.77-6a25.1,25.1,0,0,1-.31-4.51c0-.12,0-.23,0-.37.1-3.33.48-7,3.89-8.18a45.92,45.92,0,0,0,13.34-6.09,2,2,0,1,0-2.26-3.23A41.69,41.69,0,0,1,6.78,43.75l-.15,0C.3,46,.11,52.73,0,55.61A2.93,2.93,0,0,1,0,56v0c0,.76,0,4.66.74,6.62a1.87,1.87,0,0,0,.76.92c.44.29,10.94,7,28.51,7s28.08-6.7,28.51-7a2,2,0,0,0,.76-.92C60,60.69,60,56.79,60,56Z"/></g></g></svg>