<svg xmlns="http://www.w3.org/2000/svg" viewBox="0 0 76.36 75.99"><defs><style>.cls-1{fill:none;stroke:#2e3192;stroke-miterlimit:10;stroke-width:2.5px;}</style></defs><title>specilizedin</title><g id="Layer_2" data-name="Layer 2"><g id="products"><path class="cls-1" d="M71.14,65.84H62.59v8.9H69a2.15,2.15,0,0,0,2.15-2.15V66.51C71.2,66.3,71.15,66.06,71.14,65.84Z"/><path class="cls-1" d="M37.76,27.11a72.4,72.4,0,0,1-19.38-2.7v8.45A68.76,68.76,0,0,0,37.76,35.7,75.37,75.37,0,0,0,58,32.86V24.41A78.62,78.62,0,0,1,37.76,27.11Z"/><path class="cls-1" d="M37.83,1.25A19.36,19.36,0,0,0,18.52,20a68.59,68.59,0,0,0,19.31,2.82A74.67,74.67,0,0,0,57.91,20C57.55,9.59,48.28,1.25,37.83,1.25Z"/><path class="cls-1" d="M53.55,59.38v-8.1l-4.48,9.07a2.15,2.15,0,0,1-1.93,1.19h-18a2.15,2.15,0,0,1-1.93-1.19l-4.53-9.07v8.1a6.45,6.45,0,0,1-4.31,6.06v9.3H57.85v-9.3A6.45,6.45,0,0,1,53.55,59.38Z"/><path class="cls-1" d="M58.36,48.86l-.48-.06V59.38a2.18,2.18,0,0,0,2.18,2.15H74.92C73.52,51.93,63.87,47.37,58.36,48.86Z"/><path class="cls-1" d="M18.11,48.84C12.57,47.42,2.83,52,1.44,61.53H16.52a2.16,2.16,0,0,0,2.15-2.15V48.76C18.48,48.8,18.3,48.8,18.11,48.84Z"/><path class="cls-1" d="M5.35,65.84c0,.15,0,.29,0,.43v6.31a2.15,2.15,0,0,0,2.15,2.15h6.46v-8.9Z"/><path class="cls-1" d="M37.83,40a73.29,73.29,0,0,1-14.14-1.44,15,15,0,0,0,14.14,10c6.53,0,12.83-4.2,14.91-10A82.75,82.75,0,0,1,37.83,40Z"/><path class="cls-1" d="M40.49,52.7v4.52h5.19l4-8A19.4,19.4,0,0,1,40.49,52.7Z"/><path class="cls-1" d="M26.77,49.24l4,8h5.13V52.7A19.18,19.18,0,0,1,26.77,49.24Z"/></g></g></svg>